<svg width="24" height="24" viewBox="0 0 24 24" fill="none" xmlns="http://www.w3.org/2000/svg">
<g filter="url(#filter0_d_1013_695)">
<path d="M13.475 17.45L8.52505 12.5C8.44171 12.4167 8.38338 12.3333 8.35005 12.25C8.31672 12.1667 8.30005 12.075 8.30005 11.975C8.30005 11.875 8.31672 11.7833 8.35005 11.7C8.38338 11.6167 8.44171 11.5333 8.52505 11.45L13.5 6.475C13.65 6.325 13.8292 6.25 14.0375 6.25C14.2459 6.25 14.425 6.325 14.575 6.475C14.725 6.625 14.7959 6.80833 14.7875 7.025C14.7792 7.24167 14.7 7.425 14.55 7.575L10.15 11.975L14.575 16.4C14.725 16.55 14.8 16.725 14.8 16.925C14.8 17.125 14.725 17.3 14.575 17.45C14.425 17.6 14.2417 17.675 14.025 17.675C13.8084 17.675 13.625 17.6 13.475 17.45Z" fill="white"/>
</g>
<defs>
<filter id="filter0_d_1013_695" x="4.30005" y="3.25" width="14.5" height="19.425" filterUnits="userSpaceOnUse" color-interpolation-filters="sRGB">
<feFlood flood-opacity="0" result="BackgroundImageFix"/>
<feColorMatrix in="SourceAlpha" type="matrix" values="0 0 0 0 0 0 0 0 0 0 0 0 0 0 0 0 0 0 127 0" result="hardAlpha"/>
<feMorphology radius="1" operator="dilate" in="SourceAlpha" result="effect1_dropShadow_1013_695"/>
<feOffset dy="1"/>
<feGaussianBlur stdDeviation="1.5"/>
<feComposite in2="hardAlpha" operator="out"/>
<feColorMatrix type="matrix" values="0 0 0 0 0 0 0 0 0 0 0 0 0 0 0 0 0 0 0.2 0"/>
<feBlend mode="normal" in2="BackgroundImageFix" result="effect1_dropShadow_1013_695"/>
<feBlend mode="normal" in="SourceGraphic" in2="effect1_dropShadow_1013_695" result="shape"/>
</filter>
</defs>
</svg>
