<svg width="134" height="135" viewBox="0 0 134 135" fill="none" xmlns="http://www.w3.org/2000/svg">
<ellipse cx="66.5" cy="67.5" rx="65.5" ry="67.5" fill="black"/>
<path fill-rule="evenodd" clip-rule="evenodd" d="M58.0427 0.345902C50.2757 1.54474 44.4086 3.32704 37.9978 6.43426C18.2269 16.0176 4.74631 33.9805 0.747619 56.069C-0.0854411 60.6719 -0.260989 71.4528 0.417588 76.3369C3.85324 101.063 19.8777 121.641 42.64 130.559C46.4277 132.043 48.1324 132.099 49.4494 130.782L50.3824 129.849V122.765V115.681L49.5046 115.886C49.022 115.999 46.7597 116.177 44.4775 116.283C41.1657 116.436 39.9094 116.368 38.2535 115.942C32.8006 114.542 30.1355 112.306 27.5833 106.993C25.5648 102.79 23.5534 100.021 21.4464 98.5455C19.4072 97.1175 17.826 95.6199 17.826 95.1171C17.826 94.3795 19.1458 93.9799 21.1566 94.1079C24.9048 94.3467 28.0905 96.579 31.1505 101.112C34.341 105.838 37.4179 107.795 42.0428 108.039C44.7364 108.181 47.255 107.8 49.4877 106.912C50.5518 106.49 50.7019 106.28 51.0143 104.775C51.4363 102.743 52.8566 99.6731 54.0038 98.3144C54.4694 97.7622 54.8509 97.2423 54.8509 97.1586C54.8509 97.075 53.8142 96.9042 52.547 96.7794C49.0539 96.4354 43.429 94.9024 40.3288 93.4494C32.0432 89.5666 27.4333 83.4917 25.2846 73.6239C24.8234 71.5045 24.6938 69.5492 24.6925 64.6869C24.6912 58.466 24.6915 58.4612 25.7455 55.4373C26.921 52.0642 28.1135 49.8188 29.9896 47.4451L31.2501 45.8504L30.7534 44.0174C29.628 39.8665 29.807 34.7427 31.2398 30.1047L31.8954 27.9811H33.8306C37.1744 27.9811 42.6524 30.1145 47.841 33.4372L50.247 34.9779L51.9904 34.5291C56.9562 33.2508 59.7643 32.9556 66.9797 32.9533C74.1616 32.9511 77.2749 33.2748 82.0977 34.5259L83.7003 34.9415L86.9103 33.0003C92.5288 29.6026 97.3328 27.8573 100.555 28.044L102.225 28.1407L102.994 30.5346C104.082 33.922 104.307 40.2472 103.454 43.508L102.858 45.7892L104.385 47.8169C108.608 53.423 110.196 59.8117 109.454 68.2087C107.951 85.2031 99.2143 94.2761 82.0616 96.6546C80.5251 96.8675 79.2133 97.0823 79.1459 97.1318C79.0786 97.1813 79.4727 97.7332 80.0217 98.3584C81.219 99.722 82.0326 101.265 82.8008 103.627C83.294 105.144 83.3964 107.069 83.5541 117.779L83.7367 130.175L84.6323 130.945C86 132.5 87.4131 131.964 91 130.559C113.67 121.677 130.112 101.044 133.508 76.5655C134.086 72.4008 134.173 63.2927 133.673 59.2525C131.578 42.2989 123.073 26.3977 110.449 15.8261C100.933 7.85876 90.5955 2.99222 78.2506 0.669232C74.4702 -0.0422205 61.8636 -0.243942 58.0427 0.345902Z" fill="#FFFEFE"/>
</svg>
