<svg width="207" height="209" viewBox="0 0 207 209" fill="none" xmlns="http://www.w3.org/2000/svg">
<g opacity="0.1">
<path d="M127.887 104.61C127.923 118.285 116.866 129.4 103.19 129.436C89.5147 129.472 78.3995 118.414 78.3638 104.739C78.3281 91.0633 89.3854 79.9481 103.061 79.9124C116.737 79.8767 127.852 90.934 127.887 104.61Z" fill="white"/>
<path fill-rule="evenodd" clip-rule="evenodd" d="M103.397 208.674C155.79 208.537 199.033 169.681 206.111 119.263L145.2 119.422C139.126 136.749 122.649 149.195 103.242 149.245C83.8354 149.296 67.2932 136.936 61.1293 119.641L0.217983 119.8C7.55866 170.181 51.004 208.811 103.397 208.674ZM61.0518 89.9268L0.14041 90.0858C7.21794 39.6674 50.461 0.811321 102.854 0.674543C155.247 0.537765 198.693 39.1675 206.033 89.5483L145.122 89.7074C138.958 72.412 122.416 60.0522 103.009 60.1029C83.6027 60.1536 67.1253 72.5995 61.0518 89.9268ZM127.887 104.61C127.923 118.285 116.866 129.4 103.19 129.436C89.5147 129.472 78.3995 118.414 78.3638 104.739C78.3281 91.0633 89.3854 79.9481 103.061 79.9124C116.737 79.8767 127.852 90.934 127.887 104.61Z" fill="white"/>
</g>
</svg>
