<?xml version="1.0" encoding="UTF-8" standalone="no"?>
<!DOCTYPE svg PUBLIC "-//W3C//DTD SVG 1.1//EN" "http://www.w3.org/Graphics/SVG/1.1/DTD/svg11.dtd">
<svg width="443px" height="443px" version="1.1" xmlns="http://www.w3.org/2000/svg" xmlns:xlink="http://www.w3.org/1999/xlink" xml:space="preserve" xmlns:serif="http://www.serif.com/" style="fill-rule:evenodd;clip-rule:evenodd;stroke-linejoin:round;stroke-miterlimit:2;">
    <g transform="matrix(1,0,0,1,-1132,-93)">
        <g id="Prancheta2" transform="matrix(1,0,0,1,-0.869752,-0.549195)">
            <rect x="1132.87" y="93.549" width="442.97" height="442.97" style="fill:none;"/>
            <clipPath id="_clip1">
                <rect x="1132.87" y="93.549" width="442.97" height="442.97"/>
            </clipPath>
            <g clip-path="url(#_clip1)">
                <g transform="matrix(0.482694,0,0,0.482694,1251.86,178.761)">
                    <path d="M244.162,511.555C252.137,400.653 344.754,313.033 457.674,313.033C570.593,313.033 663.21,400.653 671.185,511.555L551.688,511.555C544.257,466.353 504.966,431.823 457.674,431.823C410.381,431.823 371.09,466.353 363.659,511.555L244.162,511.555ZM671.185,542.647C663.21,653.549 570.593,741.169 457.674,741.169C344.754,741.169 252.137,653.549 244.162,542.647L363.659,542.647C371.09,587.849 410.381,622.38 457.674,622.38C504.966,622.38 544.257,587.849 551.688,542.647L671.185,542.647ZM457.674,463.688C492.672,463.688 521.087,492.102 521.087,527.101C521.087,562.1 492.672,590.515 457.674,590.515C422.675,590.515 394.26,562.1 394.26,527.101C394.26,492.102 422.675,463.688 457.674,463.688Z" style="fill:rgb(235,235,235);fill-opacity:0.24;"/>
                </g>
                <g transform="matrix(0.96079,-0.277276,0.277276,0.96079,-68.4454,349.019)">
                    <path d="M1328.9,48.21C1328.9,38.649 1321.14,30.886 1311.58,30.886L1186.41,30.886C1176.85,30.886 1169.09,38.649 1169.09,48.21L1169.09,173.373C1169.09,182.935 1176.85,190.697 1186.41,190.697L1311.58,190.697C1321.14,190.697 1328.9,182.935 1328.9,173.373L1328.9,48.21Z" style="fill:url(#_Linear2);"/>
                </g>
                <g transform="matrix(1.70825,0,0,1.70825,-911.704,-167.627)">
                    <g>
                        <g transform="matrix(0.560429,0,0,0.560429,555.633,128.373)">
                            <circle cx="1265.73" cy="287.116" r="2.891" style="fill:white;fill-opacity:0.24;"/>
                        </g>
                        <g transform="matrix(0.560429,0,0,0.560429,555.633,136.953)">
                            <circle cx="1265.73" cy="287.116" r="2.891" style="fill:white;fill-opacity:0.24;"/>
                        </g>
                        <g transform="matrix(0.560429,0,0,0.560429,555.633,145.532)">
                            <circle cx="1265.73" cy="287.116" r="2.891" style="fill:white;fill-opacity:0.24;"/>
                        </g>
                    </g>
                    <g transform="matrix(1,0,0,1,7.71382,0)">
                        <g transform="matrix(0.560429,0,0,0.560429,555.633,128.373)">
                            <circle cx="1265.73" cy="287.116" r="2.891" style="fill:white;fill-opacity:0.24;"/>
                        </g>
                        <g transform="matrix(0.560429,0,0,0.560429,555.633,136.953)">
                            <circle cx="1265.73" cy="287.116" r="2.891" style="fill:white;fill-opacity:0.24;"/>
                        </g>
                        <g transform="matrix(0.560429,0,0,0.560429,555.633,145.532)">
                            <circle cx="1265.73" cy="287.116" r="2.891" style="fill:white;fill-opacity:0.24;"/>
                        </g>
                    </g>
                    <g transform="matrix(1,0,0,1,15.8978,0)">
                        <g transform="matrix(0.560429,0,0,0.560429,555.633,128.373)">
                            <circle cx="1265.73" cy="287.116" r="2.891" style="fill:white;fill-opacity:0.24;"/>
                        </g>
                        <g transform="matrix(0.560429,0,0,0.560429,555.633,136.953)">
                            <circle cx="1265.73" cy="287.116" r="2.891" style="fill:white;fill-opacity:0.24;"/>
                        </g>
                        <g transform="matrix(0.560429,0,0,0.560429,555.633,145.532)">
                            <circle cx="1265.73" cy="287.116" r="2.891" style="fill:white;fill-opacity:0.24;"/>
                        </g>
                    </g>
                    <g transform="matrix(1,0,0,1,24.0817,0)">
                        <g transform="matrix(0.560429,0,0,0.560429,555.633,128.373)">
                            <circle cx="1265.73" cy="287.116" r="2.891" style="fill:white;fill-opacity:0.24;"/>
                        </g>
                        <g transform="matrix(0.560429,0,0,0.560429,555.633,136.953)">
                            <circle cx="1265.73" cy="287.116" r="2.891" style="fill:white;fill-opacity:0.24;"/>
                        </g>
                        <g transform="matrix(0.560429,0,0,0.560429,555.633,145.532)">
                            <circle cx="1265.73" cy="287.116" r="2.891" style="fill:white;fill-opacity:0.24;"/>
                        </g>
                    </g>
                    <g transform="matrix(1,0,0,1,32.2657,0)">
                        <g transform="matrix(0.560429,0,0,0.560429,555.633,128.373)">
                            <circle cx="1265.73" cy="287.116" r="2.891" style="fill:white;fill-opacity:0.24;"/>
                        </g>
                        <g transform="matrix(0.560429,0,0,0.560429,555.633,136.953)">
                            <circle cx="1265.73" cy="287.116" r="2.891" style="fill:white;fill-opacity:0.24;"/>
                        </g>
                        <g transform="matrix(0.560429,0,0,0.560429,555.633,145.532)">
                            <circle cx="1265.73" cy="287.116" r="2.891" style="fill:white;fill-opacity:0.24;"/>
                        </g>
                    </g>
                    <g transform="matrix(1,0,0,1,40.4496,0)">
                        <g transform="matrix(0.560429,0,0,0.560429,555.633,128.373)">
                            <circle cx="1265.73" cy="287.116" r="2.891" style="fill:white;fill-opacity:0.24;"/>
                        </g>
                        <g transform="matrix(0.560429,0,0,0.560429,555.633,136.953)">
                            <circle cx="1265.73" cy="287.116" r="2.891" style="fill:white;fill-opacity:0.24;"/>
                        </g>
                        <g transform="matrix(0.560429,0,0,0.560429,555.633,145.532)">
                            <circle cx="1265.73" cy="287.116" r="2.891" style="fill:white;fill-opacity:0.24;"/>
                        </g>
                    </g>
                </g>
            </g>
        </g>
    </g>
    <defs>
        <linearGradient id="_Linear2" x1="0" y1="0" x2="1" y2="0" gradientUnits="userSpaceOnUse" gradientTransform="matrix(62.3831,193.45,-193.45,62.3831,1238.08,42.4992)"><stop offset="0" style="stop-color:white;stop-opacity:0.24"/><stop offset="1" style="stop-color:white;stop-opacity:0"/></linearGradient>
    </defs>
</svg>