<?xml version="1.0" encoding="UTF-8" standalone="no"?>
<!DOCTYPE svg PUBLIC "-//W3C//DTD SVG 1.1//EN" "http://www.w3.org/Graphics/SVG/1.1/DTD/svg11.dtd">
<svg width="428px" height="429px" version="1.1" xmlns="http://www.w3.org/2000/svg" xmlns:xlink="http://www.w3.org/1999/xlink" xml:space="preserve" xmlns:serif="http://www.serif.com/" style="fill-rule:evenodd;clip-rule:evenodd;stroke-linejoin:round;stroke-miterlimit:2;">
    <g transform="matrix(1,0,0,1,-244.162,-313.033)">
        <path d="M244.162,511.555C252.137,400.653 344.754,313.033 457.674,313.033C570.593,313.033 663.21,400.653 671.185,511.555L551.688,511.555C544.257,466.353 504.966,431.823 457.674,431.823C410.381,431.823 371.09,466.353 363.659,511.555L244.162,511.555ZM671.185,542.647C663.21,653.549 570.593,741.169 457.674,741.169C344.754,741.169 252.137,653.549 244.162,542.647L363.659,542.647C371.09,587.849 410.381,622.38 457.674,622.38C504.966,622.38 544.257,587.849 551.688,542.647L671.185,542.647ZM457.674,463.688C492.672,463.688 521.087,492.102 521.087,527.101C521.087,562.1 492.672,590.515 457.674,590.515C422.675,590.515 394.26,562.1 394.26,527.101C394.26,492.102 422.675,463.688 457.674,463.688Z" style="fill:rgb(235,235,235);fill-opacity:0.24;"/>
    </g>
</svg>