<?xml version="1.0" encoding="utf-8"?>
<!-- Generator: Adobe Illustrator 16.0.0, SVG Export Plug-In . SVG Version: 6.00 Build 0)  -->
<!DOCTYPE svg PUBLIC "-//W3C//DTD SVG 1.1//EN" "http://www.w3.org/Graphics/SVG/1.1/DTD/svg11.dtd">
<svg version="1.1" id="Layer_1" xmlns="http://www.w3.org/2000/svg" xmlns:xlink="http://www.w3.org/1999/xlink" x="0px" y="0px"
	 width="135px" height="135px" viewBox="0 0 135 135" style="enable-background:new 0 0 135 135;" xml:space="preserve">
<style type="text/css">
<![CDATA[
	.st0{fill:#465652;}
	.st1{fill:#AAB9BA;}
	.st2{fill:#47C67B;}
	.st3{fill:#AAC8D1;}
	.st4{fill:none;stroke:#E83834;stroke-width:6;stroke-linecap:round;stroke-linejoin:round;stroke-miterlimit:10;}
	.st5{fill:#7BC67B;}
	.st6{fill:#7BC7FF;}
	.st7{fill:#7C34C1;}
	.st8{fill:#7C8D96;}
	.st9{fill:#AD2707;}
	.st10{fill:#ADB8BC;}
	.st11{fill:#107510;}
	.st12{fill:#7FE5D8;}
	.st13{fill:#AF4AD1;}
	.st14{fill:#E02B7E;}
	.st15{fill:#E04038;}
	.st16{fill:#AFD7DD;}
	.st17{fill:#E0A010;}
	.st18{fill:#E0D5A4;}
	.st19{fill:#12B2B2;}
	.st20{fill:#12D66B;}
	.st21{fill:#E1A9FF;}
	.st22{fill:#1362A8;}
	.st23{fill:#E2378D;}
	.st24{fill:#E29C37;}
	.st25{fill:#E2B90E;}
	.st26{fill:#E2BF91;}
	.st27{fill:#E2CBAA;}
	.st28{fill:#14A594;}
	.st29{fill:#E4E9ED;}
	.st30{fill:#4A5D60;}
	.st31{fill:#E5B076;}
	.st32{fill:#E5B1C4;}
	.st33{fill:#E5E4C3;}
	.st34{fill:#4B6466;}
	.st35{fill:#E6FF2E;}
	.st36{fill:#18AA67;}
	.st37{fill:#E86207;}
	.st38{fill:#E8A113;}
	.st39{fill:#E8B5A6;}
	.st40{fill:#E8E8ED;}
	.st41{fill:#4E5154;}
	.st42{fill:#E9F1F4;}
	.st43{fill:#4F4B48;}
	.st44{fill:#4F74E8;}
	.st45{fill:#808E93;}
	.st46{fill:#80949B;}
	.st47{fill:#80EDAC;}
	.st48{fill:#B122E0;}
	.st49{fill:#B2C4CC;}
	.st50{fill:#83D839;}
	.st51{fill:#B3C6C6;}
	.st52{fill:none;stroke:#33363A;stroke-width:3;stroke-linecap:round;stroke-linejoin:round;stroke-miterlimit:10;}
	.st53{fill:#1A8E1C;}
	.st54{fill:#1A93D6;}
	.st55{fill:#B50B0B;}
	.st56{fill:#1AD88F;}
	.st57{fill:#B5DAF4;}
	.st58{fill:#EA7B1F;}
	.st59{fill:#EA81BD;}
	.st60{fill:#87B8D6;}
	.st61{fill:#87C3F4;}
	.st62{fill:#EAC79D;}
	.st63{fill:#EADF11;}
	.st64{fill:#EAE4C5;}
	.st65{fill:#B78094;}
	.st66{fill:#8844D8;}
	.st67{fill:#EBF4F7;}
	.st68{fill:#893015;}
	.st69{fill:#89410B;}
	.st70{fill:#899BA3;}
	.st71{fill:#EDE3B9;}
	.st72{enable-background:new    ;}
	.st73{fill:#50FF9F;}
	.st74{fill:#EEDCF4;}
	.st75{fill:#EFA37D;}
	.st76{fill:#EFA3CC;}
	.st77{fill:#EFC99A;}
	.st78{fill:#54AF79;}
	.st79{fill:#BA503A;}
	.st80{fill:#BA8663;}
	.st81{fill:#8B4FE0;}
	.st82{fill:#58ED9B;}
	.st83{fill:#BC7DFF;}
	.st84{fill:#8D9AA3;}
	.st85{fill:#BCCAD3;}
	.st86{fill:#8DE4FF;}
	.st87{fill:#20B518;}
	.st88{fill:#BF44F2;}
	.st89{fill:#21CEA1;}
	.st90{fill:#BFDAE0;}
	.st91{fill:#F0FBFC;}
	.st92{fill:#F2D9A7;}
	.st93{fill:#F2EAC9;}
	.st94{fill:#24D1AF;}
	.st95{fill:#25931C;}
	.st96{fill:#F4C4B3;}
	.st97{fill:#F4D3A2;}
	.st98{fill:#F4D647;}
	.st99{fill:#F4D7B8;}
	.st100{fill:#F4EC8E;}
	.st101{fill:#5B524D;}
	.st102{fill:#F77819;}
	.st103{fill:#F79AE1;}
	.st104{fill:#5E707A;}
	.st105{fill:#F93585;}
	.st106{fill:#F95D5D;}
	.st107{fill:#F9C19B;}
	.st108{fill:#F9CB58;}
	.st109{fill:#F9D2B2;}
	.st110{fill:#F9F07D;}
	.st111{fill:#F9F1D2;}
	.st112{fill:#F9F4B7;}
	.st113{fill:#F9F9E4;}
	.st114{fill:#5F1DAA;}
	.st115{fill:#5F9AD6;}
	.st116{fill:#C0C0C4;}
	.st117{fill:#91EA57;}
	.st118{fill:#C12727;}
	.st119{fill:#C191A0;}
	.st120{fill:#923BB7;}
	.st121{fill:#93A0A3;}
	.st122{fill:#93F9EA;}
	.st123{fill:#93FF5A;}
	.st124{fill:#C4833D;}
	.st125{fill:#95A2A5;}
	.st126{fill:#965514;}
	.st127{fill:#96562C;}
	.st128{fill:#2AF42F;}
	.st129{fill:#C5D7DD;}
	.st130{fill:#C68510;}
	.st131{fill:#C6A86D;}
	.st132{fill:#C6BB8D;}
	.st133{fill:#2C9DCE;}
	.st134{fill:#FBFCF2;}
	.st135{fill:#FC70B0;}
	.st136{fill:#FCE6C8;}
	.st137{fill:#FCF7E3;}
	.st138{fill:#C90D6B;}
	.st139{fill:#FDFEFF;}
	.st140{fill:#FDFFDC;}
	.st141{fill:#FF1A1A;}
	.st142{fill:#FF5252;}
	.st143{fill:#FF5B00;}
	.st144{fill:#FF6155;}
	.st145{fill:#FF630D;}
	.st146{fill:#FF6666;}
	.st147{fill:#FF7676;}
	.st148{fill:#FF7900;}
	.st149{fill:#FF860D;}
	.st150{fill:#FF8B00;}
	.st151{fill:#FF8F8F;}
	.st152{fill:#FF900B;}
	.st153{fill:#FF908A;}
	.st154{fill:#FF960B;}
	.st155{fill:#FF9C0D;}
	.st156{fill:#FFA9D4;}
	.st157{fill:#FFAA00;}
	.st158{fill:#FFAD40;}
	.st159{fill:#FFAF10;}
	.st160{fill:#FFB000;}
	.st161{fill:#FFBE08;}
	.st162{fill:#FFBF31;}
	.st163{fill:#FFC200;}
	.st164{fill:#FFCAE8;}
	.st165{fill:#FFCCF5;}
	.st166{fill:#FFD00B;}
	.st167{fill:#FFD039;}
	.st168{fill:#FFD400;}
	.st169{fill:#FFD833;}
	.st170{fill:#FFDB80;}
	.st171{fill:#FFDDD2;}
	.st172{fill:#FFE6D4;}
	.st173{fill:#FFE6EB;}
	.st174{fill:#FFE98D;}
	.st175{fill:#FFECD2;}
	.st176{fill:#FFF1D9;}
	.st177{fill:#FFF24D;}
	.st178{fill:#FFF3C2;}
	.st179{fill:#FFF4C7;}
	.st180{fill:#FFF800;}
	.st181{fill:#FFF80D;}
	.st182{fill:#FFF9DE;}
	.st183{fill:#FFFBD7;}
	.st184{fill:#FFFBEB;}
	.st185{fill:#FFFCC0;}
	.st186{fill:#FFFCDC;}
	.st187{fill:#FFFFFA;}
	.st188{fill:#FFFFFF;}
	.st189{fill:#63797F;}
	.st190{fill:#65E529;}
	.st191{fill:#66310E;}
	.st192{fill:#663C17;}
	.st193{fill:#9A5AE5;}
	.st194{fill:#CA30EF;}
	.st195{fill:#6892FC;}
	.st196{fill:#9CFFC4;}
	.st197{fill:#CC4306;}
	.st198{fill:#CC549E;}
	.st199{fill:#9E3256;}
	.st200{fill:#CDFFBB;}
	.st201{fill:#CE86AF;}
	.st202{fill:#CED9DD;}
	
		.st203{fill:none;stroke:#33363A;stroke-width:3;stroke-linecap:round;stroke-linejoin:round;stroke-miterlimit:10;stroke-dasharray:6;}
	.st204{fill:#CFE1E2;}
	.st205{fill:#33363A;}
	.st206{fill:#34C166;}
	.st207{fill:#364B5B;}
	.st208{fill:#3662CE;}
	.st209{fill:#36C6FF;}
	.st210{fill:#6ADB9A;}
	.st211{fill:#6D5C4D;}
	.st212{fill:#6EBDF9;}
	.st213{fill:#0031FF;}
	.st214{fill:#0062FF;}
	.st215{fill:#0068FF;}
	.st216{fill:#0086FF;}
	.st217{fill:#009BE8;}
	.st218{fill:#00AAFF;}
	.st219{fill:#D271FF;}
	.st220{fill:#D363A9;}
	.st221{fill:#D3964C;}
	.st222{fill:#D3DFE2;}
	.st223{fill:#D3E0E2;}
	.st224{fill:#D3EFF4;}
	.st225{fill:#063B66;}
	.st226{fill:#D60909;}
	.st227{fill:#D61D1D;}
	.st228{fill:#D7F0FF;}
	.st229{fill:#09B285;}
	.st230{fill:#D8D593;}
	.st231{fill:#D8E2EA;}
	.st232{fill:#D8E5EA;}
	.st233{fill:#3E5054;}
	.st234{fill:#D988FF;}
	.st235{fill:#D9E7E8;}
	.st236{fill:#702252;}
	.st237{fill:#70D3E0;}
	.st238{fill:#A02FF2;}
	.st239{fill:#A2F255;}
	.st240{fill:#A35616;}
	.st241{fill:#A3CCCC;}
	.st242{fill:#0A6ADD;}
	.st243{fill:#A5145D;}
	.st244{fill:#A57555;}
	.st245{fill:#77D6FC;}
	.st246{fill:#7815CE;}
	.st247{fill:#A7BBC1;}
	.st248{fill:#DBD279;}
	.st249{fill:#0D5C9E;}
	.st250{fill:#A83C11;}
	.st251{fill:#A8633D;}
	.st252{fill:#A8A3E5;}
	.st253{fill:#DCE6EA;}
	.st254{fill:#DCE7EA;}
	.st255{fill:#A962E8;}
	.st256{fill:#DD2466;}
	.st257{fill:#DDC38A;}
	.st258{fill:#DDD2B1;}
	.st259{fill:#DFE7E8;}
	.st260{fill:#42B1E8;}
	.st261{fill:#436377;}
	.st262{fill:#43B530;}
]]>
</style>
<g>
	<g>
		<g>
			<path class="st232" d="M107.515,19.271h-12.08v-6.12c0-4.228-3.428-7.651-7.652-7.651H47.222c-4.229,0-7.656,3.424-7.656,7.651
				v6.12h-12.08c-8.338,0-15.1,6.758-15.1,15.1v80.027c0,8.338,6.762,15.102,15.1,15.102h80.029c8.34,0,15.1-6.764,15.1-15.102
				V34.371C122.614,26.029,115.854,19.271,107.515,19.271z M67.501,104.217c-16.475,0-29.83-13.359-29.83-29.833
				c0-16.475,13.355-29.829,29.83-29.829s29.832,13.354,29.832,29.829C97.333,90.857,83.976,104.217,67.501,104.217z"/>
		</g>
		<g>
			<path class="st129" d="M107.515,33.525h-12.08v-6.119c0-4.227-3.428-7.653-7.652-7.653H47.222c-4.229,0-7.656,3.427-7.656,7.653
				v6.119h-12.08c-8.338,0-15.1,6.762-15.1,15.098v65.775c0,8.338,6.762,15.102,15.1,15.102h80.029c8.34,0,15.1-6.764,15.1-15.102
				V48.623C122.614,40.287,115.854,33.525,107.515,33.525z M97.333,88.639c0,16.475-13.357,29.831-29.832,29.831
				s-29.83-13.356-29.83-29.831c0-2.461,0.33-4.84,0.893-7.127c-0.562-2.289-0.893-4.666-0.893-7.128
				c0-16.475,13.355-29.829,29.83-29.829s29.832,13.354,29.832,29.829c0,2.462-0.332,4.839-0.893,7.128
				C97.001,83.799,97.333,86.178,97.333,88.639z"/>
		</g>
		<g>
			<path class="st205" d="M107.515,131H27.485c-9.153,0-16.6-7.447-16.6-16.602V34.371c0-9.153,7.447-16.6,16.6-16.6h10.58v-4.62
				C38.065,8.105,42.173,4,47.222,4h40.561c5.046,0,9.152,4.105,9.152,9.151v4.62h10.58c9.153,0,16.6,7.447,16.6,16.6v80.027
				C124.114,123.553,116.667,131,107.515,131z M27.485,20.771c-7.499,0-13.6,6.101-13.6,13.6v80.027c0,7.5,6.101,13.602,13.6,13.602
				h80.029c7.499,0,13.6-6.102,13.6-13.602V34.371c0-7.499-6.101-13.6-13.6-13.6h-12.08c-0.829,0-1.5-0.671-1.5-1.5v-6.12
				c0-3.392-2.76-6.151-6.152-6.151H47.222c-3.395,0-6.156,2.759-6.156,6.151v6.12c0,0.829-0.671,1.5-1.5,1.5H27.485z
				 M67.501,105.717c-17.275,0-31.33-14.056-31.33-31.333c0-17.275,14.055-31.329,31.33-31.329
				c17.276,0,31.332,14.054,31.332,31.329C98.833,91.661,84.777,105.717,67.501,105.717z M67.501,46.055
				c-15.621,0-28.33,12.708-28.33,28.329c0,15.623,12.709,28.333,28.33,28.333c15.623,0,28.332-12.71,28.332-28.333
				C95.833,58.763,83.124,46.055,67.501,46.055z"/>
		</g>
	</g>
	<g>
		<g>
			<circle class="st151" cx="67.501" cy="77.184" r="32.959"/>
		</g>
		<g>
			<path class="st141" d="M100.46,77.184c0,13.943-14.756,25.248-32.959,25.248S34.542,91.127,34.542,77.184
				c0-13.939,14.756-25.244,32.959-25.244S100.46,63.244,100.46,77.184z"/>
		</g>
		<g>
			<path class="st188" d="M34.542,77.184c0,18.205,14.756,32.961,32.959,32.961s32.959-14.756,32.959-32.961H34.542z"/>
		</g>
		<g>
			<path class="st232" d="M67.501,102.432c18.203,0,32.959-11.305,32.959-25.248H34.542
				C34.542,91.127,49.298,102.432,67.501,102.432z"/>
		</g>
		<g>
			<path class="st205" d="M67.501,111.645c-19.001,0-34.459-15.459-34.459-34.461c0-19,15.458-34.457,34.459-34.457
				s34.459,15.458,34.459,34.457C101.96,96.186,86.502,111.645,67.501,111.645z M67.501,45.727
				c-17.347,0-31.459,14.111-31.459,31.457c0,17.348,14.112,31.461,31.459,31.461S98.96,94.531,98.96,77.184
				C98.96,59.838,84.848,45.727,67.501,45.727z"/>
		</g>
		<g>
			<path class="st205" d="M100.46,78.684H34.542c-0.829,0-1.5-0.672-1.5-1.5s0.671-1.5,1.5-1.5h65.918c0.829,0,1.5,0.672,1.5,1.5
				S101.289,78.684,100.46,78.684z"/>
		</g>
		<g>
			<g>
				<circle class="st247" cx="67.5" cy="80.96" r="10.898"/>
			</g>
			<g>
				<circle class="st188" cx="67.5" cy="77.256" r="10.899"/>
			</g>
			<g>
				<path class="st232" d="M59.794,84.963c-4.254-4.256-4.254-11.158,0-15.414c4.258-4.256,11.158-4.256,15.412,0"/>
			</g>
			<g>
				<path class="st205" d="M67.501,89.653c-3.312,0-6.425-1.289-8.768-3.629c-4.833-4.836-4.833-12.701-0.001-17.536
					c2.343-2.342,5.457-3.631,8.769-3.631c3.312,0,6.425,1.29,8.766,3.631c2.342,2.342,3.632,5.455,3.632,8.768
					s-1.29,6.427-3.633,8.768C73.926,88.364,70.813,89.653,67.501,89.653z M67.501,67.857c-2.51,0-4.871,0.978-6.647,2.752
					c-3.663,3.665-3.663,9.628,0,13.293c1.775,1.773,4.136,2.751,6.646,2.751c2.51,0,4.87-0.977,6.644-2.751
					c1.776-1.775,2.754-4.136,2.754-6.646s-0.978-4.871-2.754-6.646C72.371,68.834,70.012,67.857,67.501,67.857z"/>
			</g>
		</g>
	</g>
	<g>
		<path class="st205" d="M67.501,121.377c-0.829,0-1.5-0.672-1.5-1.5v-9.623c0-0.828,0.671-1.5,1.5-1.5s1.5,0.672,1.5,1.5v9.623
			C69.001,120.705,68.33,121.377,67.501,121.377z"/>
	</g>
	<g>
		<path class="st205" d="M111.104,106.645h-9.623c-0.829,0-1.5-0.672-1.5-1.5s0.671-1.5,1.5-1.5h9.623c0.829,0,1.5,0.672,1.5,1.5
			S111.933,106.645,111.104,106.645z"/>
	</g>
	<g>
		<path class="st205" d="M111.104,112.502h-9.623c-0.829,0-1.5-0.672-1.5-1.5s0.671-1.5,1.5-1.5h9.623c0.829,0,1.5,0.672,1.5,1.5
			S111.933,112.502,111.104,112.502z"/>
	</g>
	<g>
		<path class="st205" d="M111.104,118.357h-9.623c-0.829,0-1.5-0.672-1.5-1.5s0.671-1.5,1.5-1.5h9.623c0.829,0,1.5,0.672,1.5,1.5
			S111.933,118.357,111.104,118.357z"/>
	</g>
	<g>
		<path class="st205" d="M67.501,131c-0.829,0-1.5-0.672-1.5-1.5v-3.127c0-0.828,0.671-1.5,1.5-1.5s1.5,0.672,1.5,1.5v3.127
			C69.001,130.328,68.33,131,67.501,131z"/>
	</g>
	<g>
		<g>
			<circle class="st247" cx="30.312" cy="40.432" r="6.403"/>
		</g>
		<g>
			<circle class="st123" cx="30.312" cy="37.255" r="6.403"/>
		</g>
		<g>
			<path class="st190" d="M25.784,41.783c-2.5-2.5-2.5-6.555,0-9.056c2.502-2.5,6.555-2.5,9.055,0"/>
		</g>
		<g>
			<path class="st205" d="M30.312,45.158c-2.111,0-4.095-0.822-5.588-2.314c-3.082-3.081-3.082-8.095-0.001-11.177
				c1.494-1.493,3.479-2.314,5.589-2.314c2.11,0,4.095,0.822,5.587,2.314c1.493,1.493,2.316,3.478,2.316,5.589
				s-0.823,4.096-2.316,5.588C34.407,44.336,32.423,45.158,30.312,45.158z M30.312,32.353c-1.31,0-2.542,0.51-3.468,1.436
				c-1.911,1.912-1.911,5.022,0,6.934c0.926,0.925,2.158,1.436,3.468,1.436c1.309,0,2.54-0.51,3.466-1.436
				c0.927-0.926,1.437-2.157,1.437-3.467c0-1.31-0.51-2.541-1.437-3.467C32.853,32.862,31.622,32.353,30.312,32.353z"/>
		</g>
	</g>
</g>
</svg>
