<svg width="32" height="32" viewBox="0 0 32 32" fill="none" xmlns="http://www.w3.org/2000/svg">
<g filter="url(#filter0_d_1013_491)">
<path d="M14.8999 25.9666L5.63325 16.6999C5.52214 16.5888 5.44436 16.4777 5.39992 16.3666C5.35547 16.2555 5.33325 16.1333 5.33325 15.9999C5.33325 15.8666 5.35547 15.7444 5.39992 15.6333C5.44436 15.5222 5.52214 15.4111 5.63325 15.2999L14.9333 5.99994C15.111 5.82216 15.3333 5.73328 15.5999 5.73328C15.8666 5.73328 16.0999 5.83328 16.2999 6.03328C16.4999 6.23328 16.5999 6.46661 16.5999 6.73328C16.5999 6.99994 16.4999 7.23328 16.2999 7.43328L8.73325 14.9999H25.2666C25.5555 14.9999 25.7944 15.0944 25.9833 15.2833C26.1721 15.4722 26.2666 15.7111 26.2666 15.9999C26.2666 16.2888 26.1721 16.5277 25.9833 16.7166C25.7944 16.9055 25.5555 16.9999 25.2666 16.9999H8.73325L16.3333 24.5999C16.511 24.7777 16.5999 24.9999 16.5999 25.2666C16.5999 25.5333 16.4999 25.7666 16.2999 25.9666C16.0999 26.1666 15.8666 26.2666 15.5999 26.2666C15.3333 26.2666 15.0999 26.1666 14.8999 25.9666Z" fill="white"/>
</g>
<defs>
<filter id="filter0_d_1013_491" x="1.33325" y="2.73328" width="28.9333" height="28.5333" filterUnits="userSpaceOnUse" color-interpolation-filters="sRGB">
<feFlood flood-opacity="0" result="BackgroundImageFix"/>
<feColorMatrix in="SourceAlpha" type="matrix" values="0 0 0 0 0 0 0 0 0 0 0 0 0 0 0 0 0 0 127 0" result="hardAlpha"/>
<feMorphology radius="1" operator="dilate" in="SourceAlpha" result="effect1_dropShadow_1013_491"/>
<feOffset dy="1"/>
<feGaussianBlur stdDeviation="1.5"/>
<feComposite in2="hardAlpha" operator="out"/>
<feColorMatrix type="matrix" values="0 0 0 0 0 0 0 0 0 0 0 0 0 0 0 0 0 0 0.2 0"/>
<feBlend mode="normal" in2="BackgroundImageFix" result="effect1_dropShadow_1013_491"/>
<feBlend mode="normal" in="SourceGraphic" in2="effect1_dropShadow_1013_491" result="shape"/>
</filter>
</defs>
</svg>
