<svg width="17" height="16" viewBox="0 0 17 16" fill="none" xmlns="http://www.w3.org/2000/svg">
<path d="M4.28333 13H13.05L12 5.66663H5.33333L4.28333 13ZM8.66667 4.66663C8.95556 4.66663 9.19444 4.5694 9.38333 4.37496C9.57222 4.18051 9.66667 3.9444 9.66667 3.66663C9.66667 3.37774 9.57222 3.13885 9.38333 2.94996C9.19444 2.76107 8.95556 2.66663 8.66667 2.66663C8.38889 2.66663 8.15278 2.76107 7.95833 2.94996C7.76389 3.13885 7.66667 3.37774 7.66667 3.66663C7.66667 3.9444 7.76389 4.18051 7.95833 4.37496C8.15278 4.5694 8.38889 4.66663 8.66667 4.66663ZM10.4 4.66663H12C12.2556 4.66663 12.4778 4.74718 12.6667 4.90829C12.8556 5.0694 12.9667 5.27774 13 5.53329L14.0333 12.8666C14.0778 13.1666 14.0028 13.4305 13.8083 13.6583C13.6139 13.8861 13.3611 14 13.05 14H4.28333C3.97222 14 3.71945 13.8861 3.525 13.6583C3.33056 13.4305 3.25556 13.1666 3.3 12.8666L4.33333 5.53329C4.36667 5.27774 4.47778 5.0694 4.66667 4.90829C4.85556 4.74718 5.07778 4.66663 5.33333 4.66663H6.93333C6.84444 4.51107 6.77778 4.35274 6.73333 4.19163C6.68889 4.03051 6.66667 3.85551 6.66667 3.66663C6.66667 3.11107 6.86111 2.63885 7.25 2.24996C7.63889 1.86107 8.11111 1.66663 8.66667 1.66663C9.22222 1.66663 9.69444 1.86107 10.0833 2.24996C10.4722 2.63885 10.6667 3.11107 10.6667 3.66663C10.6667 3.85551 10.6444 4.03051 10.6 4.19163C10.5556 4.35274 10.4889 4.51107 10.4 4.66663ZM4.28333 13H13.05H4.28333Z" fill="#1D1D1D"/>
</svg>
